<svg width="28" height="28" viewBox="0 0 28 28" fill="none" xmlns="http://www.w3.org/2000/svg">
<g id="palette">
<mask id="mask0_1141_4329" style="mask-type:alpha" maskUnits="userSpaceOnUse" x="0" y="0" width="28" height="28">
<rect id="Bounding box" width="28" height="28" fill="#D9D9D9"/>
</mask>
<g mask="url(#mask0_1141_4329)">
<path id="palette_2" d="M14.0002 25.6667C12.4057 25.6667 10.8988 25.3604 9.47933 24.7479C8.05989 24.1354 6.8203 23.2993 5.76058 22.2396C4.70086 21.1799 3.86475 19.9403 3.25225 18.5208C2.63975 17.1014 2.3335 15.5944 2.3335 14C2.3335 12.3861 2.64947 10.8694 3.28141 9.45C3.91336 8.03055 4.76891 6.79583 5.84808 5.74583C6.92725 4.69583 8.18627 3.86458 9.62516 3.25208C11.0641 2.63958 12.6002 2.33333 14.2335 2.33333C15.7891 2.33333 17.2571 2.60069 18.6377 3.13541C20.0182 3.67013 21.2286 4.40902 22.2689 5.35208C23.3092 6.29513 24.1356 7.41319 24.7481 8.70625C25.3606 9.9993 25.6668 11.3944 25.6668 12.8917C25.6668 15.1278 24.9863 16.8437 23.6252 18.0396C22.2641 19.2354 20.6113 19.8333 18.6668 19.8333H16.5085C16.3335 19.8333 16.212 19.8819 16.1439 19.9792C16.0759 20.0764 16.0418 20.1833 16.0418 20.3C16.0418 20.5333 16.1877 20.8687 16.4793 21.3062C16.771 21.7437 16.9168 22.2444 16.9168 22.8083C16.9168 23.7806 16.6495 24.5 16.1147 24.9667C15.58 25.4333 14.8752 25.6667 14.0002 25.6667ZM7.5835 15.1667C8.08905 15.1667 8.50711 15.0014 8.83766 14.6708C9.16822 14.3403 9.3335 13.9222 9.3335 13.4167C9.3335 12.9111 9.16822 12.4931 8.83766 12.1625C8.50711 11.8319 8.08905 11.6667 7.5835 11.6667C7.07794 11.6667 6.65989 11.8319 6.32933 12.1625C5.99877 12.4931 5.8335 12.9111 5.8335 13.4167C5.8335 13.9222 5.99877 14.3403 6.32933 14.6708C6.65989 15.0014 7.07794 15.1667 7.5835 15.1667ZM11.0835 10.5C11.5891 10.5 12.0071 10.3347 12.3377 10.0042C12.6682 9.67361 12.8335 9.25555 12.8335 8.75C12.8335 8.24444 12.6682 7.82638 12.3377 7.49583C12.0071 7.16527 11.5891 7 11.0835 7C10.5779 7 10.1599 7.16527 9.82933 7.49583C9.49877 7.82638 9.3335 8.24444 9.3335 8.75C9.3335 9.25555 9.49877 9.67361 9.82933 10.0042C10.1599 10.3347 10.5779 10.5 11.0835 10.5ZM16.9168 10.5C17.4224 10.5 17.8404 10.3347 18.171 10.0042C18.5016 9.67361 18.6668 9.25555 18.6668 8.75C18.6668 8.24444 18.5016 7.82638 18.171 7.49583C17.8404 7.16527 17.4224 7 16.9168 7C16.4113 7 15.9932 7.16527 15.6627 7.49583C15.3321 7.82638 15.1668 8.24444 15.1668 8.75C15.1668 9.25555 15.3321 9.67361 15.6627 10.0042C15.9932 10.3347 16.4113 10.5 16.9168 10.5ZM20.4168 15.1667C20.9224 15.1667 21.3404 15.0014 21.671 14.6708C22.0016 14.3403 22.1668 13.9222 22.1668 13.4167C22.1668 12.9111 22.0016 12.4931 21.671 12.1625C21.3404 11.8319 20.9224 11.6667 20.4168 11.6667C19.9113 11.6667 19.4932 11.8319 19.1627 12.1625C18.8321 12.4931 18.6668 12.9111 18.6668 13.4167C18.6668 13.9222 18.8321 14.3403 19.1627 14.6708C19.4932 15.0014 19.9113 15.1667 20.4168 15.1667ZM14.0002 23.3333C14.1752 23.3333 14.3161 23.2847 14.4231 23.1875C14.53 23.0903 14.5835 22.9639 14.5835 22.8083C14.5835 22.5361 14.4377 22.2153 14.146 21.8458C13.8543 21.4764 13.7085 20.9222 13.7085 20.1833C13.7085 19.3667 13.9904 18.7153 14.5543 18.2292C15.1182 17.7431 15.8085 17.5 16.6252 17.5H18.6668C19.9502 17.5 21.0488 17.1257 21.9627 16.3771C22.8766 15.6285 23.3335 14.4667 23.3335 12.8917C23.3335 10.5389 22.4342 8.57986 20.6356 7.01458C18.837 5.4493 16.7029 4.66666 14.2335 4.66666C11.5891 4.66666 9.3335 5.57083 7.46683 7.37916C5.60016 9.1875 4.66683 11.3944 4.66683 14C4.66683 16.5861 5.57586 18.7882 7.39391 20.6062C9.21197 22.4243 11.4141 23.3333 14.0002 23.3333Z" fill="#30B0C7"/>
</g>
</g>
</svg>
