<svg width="240" height="240" viewBox="0 0 240 240" fill="none" xmlns="http://www.w3.org/2000/svg">
<rect x="88" y="88" width="56" height="56" rx="28" fill="#787880" fill-opacity="0.12"/>
<g filter="url(#filter0_d_1071_14100)">
<path d="M116 136C116 130.424 117.939 125.697 121.818 121.818C125.697 117.939 130.424 116 136 116C130.424 116 125.697 114.061 121.818 110.182C117.939 106.303 116 101.576 116 96C116 101.576 114.061 106.303 110.182 110.182C106.303 114.061 101.576 116 96 116C101.576 116 106.303 117.939 110.182 121.818C114.061 125.697 116 130.424 116 136Z" fill="#FA2D48"/>
</g>
<defs>
<filter id="filter0_d_1071_14100" x="0" y="0" width="240" height="240" filterUnits="userSpaceOnUse" color-interpolation-filters="sRGB">
<feFlood flood-opacity="0" result="BackgroundImageFix"/>
<feColorMatrix in="SourceAlpha" type="matrix" values="0 0 0 0 0 0 0 0 0 0 0 0 0 0 0 0 0 0 127 0" result="hardAlpha"/>
<feOffset dx="4" dy="4"/>
<feGaussianBlur stdDeviation="50"/>
<feComposite in2="hardAlpha" operator="out"/>
<feColorMatrix type="matrix" values="0 0 0 0 0 0 0 0 0 0 0 0 0 0 0 0 0 0 0.25 0"/>
<feBlend mode="normal" in2="BackgroundImageFix" result="effect1_dropShadow_1071_14100"/>
<feBlend mode="normal" in="SourceGraphic" in2="effect1_dropShadow_1071_14100" result="shape"/>
</filter>
</defs>
</svg>
