<svg width="40" height="40" viewBox="0 0 40 40" fill="none" xmlns="http://www.w3.org/2000/svg">
<g id="password_2">
<mask id="mask0_1249_12412" style="mask-type:alpha" maskUnits="userSpaceOnUse" x="0" y="0" width="40" height="40">
<rect id="Bounding box" width="40" height="40" fill="#D9D9D9"/>
</mask>
<g mask="url(#mask0_1249_12412)">
<path id="password_2_2" d="M6.66699 21.6667C5.2781 21.6667 4.09755 21.1806 3.12533 20.2084C2.1531 19.2361 1.66699 18.0556 1.66699 16.6667C1.66699 15.2778 2.1531 14.0972 3.12533 13.125C4.09755 12.1528 5.2781 11.6667 6.66699 11.6667C8.05588 11.6667 9.23644 12.1528 10.2087 13.125C11.1809 14.0972 11.667 15.2778 11.667 16.6667C11.667 18.0556 11.1809 19.2361 10.2087 20.2084C9.23644 21.1806 8.05588 21.6667 6.66699 21.6667ZM5.00033 31.6667C4.5281 31.6667 4.13227 31.507 3.81283 31.1875C3.49338 30.8681 3.33366 30.4722 3.33366 30C3.33366 29.5278 3.49338 29.132 3.81283 28.8125C4.13227 28.4931 4.5281 28.3334 5.00033 28.3334H35.0003C35.4725 28.3334 35.8684 28.4931 36.1878 28.8125C36.5073 29.132 36.667 29.5278 36.667 30C36.667 30.4722 36.5073 30.8681 36.1878 31.1875C35.8684 31.507 35.4725 31.6667 35.0003 31.6667H5.00033ZM20.0003 21.6667C18.6114 21.6667 17.4309 21.1806 16.4587 20.2084C15.4864 19.2361 15.0003 18.0556 15.0003 16.6667C15.0003 15.2778 15.4864 14.0972 16.4587 13.125C17.4309 12.1528 18.6114 11.6667 20.0003 11.6667C21.3892 11.6667 22.5698 12.1528 23.542 13.125C24.5142 14.0972 25.0003 15.2778 25.0003 16.6667C25.0003 18.0556 24.5142 19.2361 23.542 20.2084C22.5698 21.1806 21.3892 21.6667 20.0003 21.6667ZM33.3337 21.6667C31.9448 21.6667 30.7642 21.1806 29.792 20.2084C28.8198 19.2361 28.3337 18.0556 28.3337 16.6667C28.3337 15.2778 28.8198 14.0972 29.792 13.125C30.7642 12.1528 31.9448 11.6667 33.3337 11.6667C34.7225 11.6667 35.9031 12.1528 36.8753 13.125C37.8475 14.0972 38.3337 15.2778 38.3337 16.6667C38.3337 18.0556 37.8475 19.2361 36.8753 20.2084C35.9031 21.1806 34.7225 21.6667 33.3337 21.6667Z" fill="#FA2D48"/>
</g>
</g>
</svg>
