<svg width="40" height="40" viewBox="0 0 40 40" fill="none" xmlns="http://www.w3.org/2000/svg">
<mask id="mask0_174_9856" style="mask-type:alpha" maskUnits="userSpaceOnUse" x="0" y="0" width="40" height="40">
<rect width="40" height="40" fill="#D9D9D9"/>
</mask>
<g mask="url(#mask0_174_9856)">
<path d="M20.0003 20.0001C18.167 20.0001 16.5975 19.3473 15.292 18.0417C13.9864 16.7362 13.3337 15.1667 13.3337 13.3334C13.3337 11.5001 13.9864 9.93064 15.292 8.62508C16.5975 7.31953 18.167 6.66675 20.0003 6.66675C21.8337 6.66675 23.4031 7.31953 24.7087 8.62508C26.0142 9.93064 26.667 11.5001 26.667 13.3334C26.667 15.1667 26.0142 16.7362 24.7087 18.0417C23.4031 19.3473 21.8337 20.0001 20.0003 20.0001ZM6.66699 30.0001V28.6667C6.66699 27.7223 6.91005 26.8542 7.39616 26.0626C7.88227 25.2709 8.5281 24.6667 9.33366 24.2501C11.0559 23.389 12.8059 22.7431 14.5837 22.3126C16.3614 21.882 18.167 21.6667 20.0003 21.6667C21.8337 21.6667 23.6392 21.882 25.417 22.3126C27.1948 22.7431 28.9448 23.389 30.667 24.2501C31.4725 24.6667 32.1184 25.2709 32.6045 26.0626C33.0906 26.8542 33.3337 27.7223 33.3337 28.6667V30.0001C33.3337 30.9167 33.0073 31.7015 32.3545 32.3542C31.7017 33.007 30.917 33.3334 30.0003 33.3334H10.0003C9.08366 33.3334 8.29894 33.007 7.64616 32.3542C6.99338 31.7015 6.66699 30.9167 6.66699 30.0001Z" fill="#FA2D48"/>
</g>
</svg>
