<svg width="40" height="40" viewBox="0 0 40 40" fill="none" xmlns="http://www.w3.org/2000/svg">
<g id="alternate_email">
<mask id="mask0_133_137" style="mask-type:alpha" maskUnits="userSpaceOnUse" x="0" y="0" width="40" height="40">
<rect id="Bounding box" width="40" height="40" fill="#D9D9D9"/>
</mask>
<g mask="url(#mask0_133_137)">
<path id="alternate_email_2" d="M20.0007 36.6667C17.6951 36.6667 15.5284 36.2292 13.5007 35.3542C11.4729 34.4792 9.70898 33.2917 8.20898 31.7917C6.70898 30.2917 5.52148 28.5278 4.64648 26.5C3.77148 24.4722 3.33398 22.3056 3.33398 20C3.33398 17.6945 3.77148 15.5278 4.64648 13.5C5.52148 11.4722 6.70898 9.70834 8.20898 8.20834C9.70898 6.70834 11.4729 5.52084 13.5007 4.64584C15.5284 3.77084 17.6951 3.33334 20.0007 3.33334C22.3062 3.33334 24.4729 3.77084 26.5007 4.64584C28.5284 5.52084 30.2923 6.70834 31.7923 8.20834C33.2923 9.70834 34.4798 11.4722 35.3548 13.5C36.2298 15.5278 36.6673 17.6945 36.6673 20V22.4167C36.6673 24.0556 36.1048 25.4514 34.9798 26.6042C33.8548 27.757 32.4729 28.3333 30.834 28.3333C29.8618 28.3333 28.9451 28.125 28.084 27.7083C27.2229 27.2917 26.5007 26.6945 25.9173 25.9167C25.1118 26.7222 24.202 27.3264 23.1882 27.7292C22.1743 28.132 21.1118 28.3333 20.0007 28.3333C17.6951 28.3333 15.7298 27.5208 14.1048 25.8958C12.4798 24.2708 11.6673 22.3056 11.6673 20C11.6673 17.6945 12.4798 15.7292 14.1048 14.1042C15.7298 12.4792 17.6951 11.6667 20.0007 11.6667C22.3062 11.6667 24.2715 12.4792 25.8965 14.1042C27.5215 15.7292 28.334 17.6945 28.334 20V22.4167C28.334 23.1389 28.5701 23.75 29.0423 24.25C29.5145 24.75 30.1118 25 30.834 25C31.5562 25 32.1534 24.75 32.6257 24.25C33.0979 23.75 33.334 23.1389 33.334 22.4167V20C33.334 16.2778 32.0423 13.125 29.459 10.5417C26.8757 7.95834 23.7229 6.66668 20.0007 6.66668C16.2784 6.66668 13.1257 7.95834 10.5423 10.5417C7.95898 13.125 6.66732 16.2778 6.66732 20C6.66732 23.7222 7.95898 26.875 10.5423 29.4583C13.1257 32.0417 16.2784 33.3333 20.0007 33.3333H26.6673C27.1395 33.3333 27.5354 33.4931 27.8548 33.8125C28.1743 34.132 28.334 34.5278 28.334 35C28.334 35.4722 28.1743 35.8681 27.8548 36.1875C27.5354 36.507 27.1395 36.6667 26.6673 36.6667H20.0007ZM20.0007 25C21.3895 25 22.5701 24.5139 23.5423 23.5417C24.5145 22.5695 25.0007 21.3889 25.0007 20C25.0007 18.6111 24.5145 17.4306 23.5423 16.4583C22.5701 15.4861 21.3895 15 20.0007 15C18.6118 15 17.4312 15.4861 16.459 16.4583C15.4868 17.4306 15.0007 18.6111 15.0007 20C15.0007 21.3889 15.4868 22.5695 16.459 23.5417C17.4312 24.5139 18.6118 25 20.0007 25Z" fill="#FA2D48"/>
</g>
</g>
</svg>
