<svg width="45" height="26" viewBox="0 0 45 26" fill="none" xmlns="http://www.w3.org/2000/svg">
<path d="M1.173 17.238C0.753667 16.9433 0.476 16.4843 0.34 15.861C0.714 15.6457 1.09367 15.385 1.479 15.079C1.86433 14.773 2.21 14.45 2.516 14.11C2.39133 13.498 2.30633 12.7047 2.261 11.73C2.21567 10.7553 2.193 9.469 2.193 7.871H2.21L2.193 7.854C2.193 6.84533 2.20433 5.98967 2.227 5.287C2.24967 4.58433 2.295 3.995 2.363 3.519C2.431 3.043 2.516 2.64067 2.618 2.312C2.73133 1.972 2.873 1.666 3.043 1.394C3.29233 0.985999 3.59833 0.691333 3.961 0.51C4.335 0.328666 4.743 0.237999 5.185 0.237999C6.069 0.237999 6.749 0.628999 7.225 1.411C7.701 2.193 7.939 3.26967 7.939 4.641C7.939 5.627 7.83133 6.60733 7.616 7.582C7.412 8.54533 7.12867 9.46333 6.766 10.336C6.41467 11.2087 6.01233 12.0077 5.559 12.733C5.10567 13.447 4.63533 14.0533 4.148 14.552C4.15933 14.586 4.17633 14.6257 4.199 14.671C4.35767 15.045 4.59 15.3283 4.896 15.521C5.202 15.7023 5.55333 15.793 5.95 15.793C6.10867 15.793 6.23333 15.861 6.324 15.997C6.426 16.1217 6.477 16.2973 6.477 16.524C6.477 17 6.26733 17.238 5.848 17.238C5.202 17.238 4.62967 17.0963 4.131 16.813C3.64367 16.5183 3.281 16.1557 3.043 15.725C2.805 15.9743 2.533 16.2237 2.227 16.473C1.93233 16.711 1.581 16.966 1.173 17.238ZM3.706 7.956C3.706 9.12333 3.71167 10.0923 3.723 10.863C3.74567 11.6223 3.774 12.2513 3.808 12.75C4.29533 12.0927 4.73733 11.322 5.134 10.438C5.53067 9.54267 5.84233 8.59633 6.069 7.599C6.307 6.60167 6.426 5.61 6.426 4.624C6.426 3.68333 6.31833 2.96367 6.103 2.465C5.88767 1.955 5.58167 1.7 5.185 1.7C4.743 1.7 4.40867 1.96067 4.182 2.482C4.06867 2.754 3.97233 3.09967 3.893 3.519C3.825 3.927 3.774 4.48233 3.74 5.185C3.71733 5.88767 3.706 6.81133 3.706 7.956ZM5.68852 17.238C5.51852 17.238 5.38819 17.17 5.29752 17.034C5.19552 16.898 5.14452 16.7223 5.14452 16.507C5.14452 16.2803 5.20119 16.1047 5.31452 15.98C5.42786 15.8553 5.57519 15.793 5.75652 15.793C6.56119 15.793 7.27519 15.5663 7.89852 15.113C8.53319 14.6483 9.03186 14.0137 9.39452 13.209C9.75719 12.4043 9.93852 11.4863 9.93852 10.455V8.976C10.0405 8.942 10.1595 8.91367 10.2955 8.891C10.4315 8.86833 10.5732 8.857 10.7205 8.857C10.9812 8.857 11.2362 8.89667 11.4855 8.976V12.903C11.4855 14.7843 12.1712 15.725 13.5425 15.725C14.3472 15.725 14.9365 15.402 15.3105 14.756C15.6959 14.0987 15.8885 13.2033 15.8885 12.07V8.976C16.1265 8.89667 16.3815 8.857 16.6535 8.857C16.9369 8.857 17.1975 8.89667 17.4355 8.976V21.76C17.4355 24.412 16.4665 25.738 14.5285 25.738C13.6332 25.738 12.9305 25.4717 12.4205 24.939C11.9219 24.4063 11.6725 23.6753 11.6725 22.746C11.6725 20.672 13.0892 18.7283 15.9225 16.915V16.116C15.2765 16.864 14.4152 17.238 13.3385 17.238C12.5112 17.238 11.8255 17.034 11.2815 16.626C10.7489 16.218 10.3749 15.623 10.1595 14.841C9.64952 15.589 9.00919 16.1783 8.23852 16.609C7.47919 17.0283 6.62919 17.238 5.68852 17.238ZM13.2025 22.712C13.2025 23.1993 13.3159 23.579 13.5425 23.851C13.7692 24.1343 14.0809 24.276 14.4775 24.276C15.4409 24.276 15.9225 23.4373 15.9225 21.76V18.717C14.1092 19.9977 13.2025 21.3293 13.2025 22.712ZM17.2199 18.122C17.0839 18.2127 16.9649 18.258 16.8629 18.258C16.6929 18.258 16.5342 18.1277 16.3869 17.867C16.2282 17.6177 16.1489 17.3683 16.1489 17.119C16.1489 17.017 16.1829 16.9377 16.2509 16.881C16.3075 16.813 16.4322 16.728 16.6249 16.626C17.1122 16.3767 17.5769 15.963 18.0189 15.385C18.4495 14.7957 18.8632 14.0533 19.2599 13.158L19.7189 12.138C20.1042 11.288 20.4669 10.6193 20.8069 10.132C21.1469 9.63333 21.4982 9.27633 21.8609 9.061C22.2349 8.84567 22.6542 8.738 23.1189 8.738C23.6062 8.738 24.0199 8.87967 24.3599 9.163C24.7112 9.435 24.9605 9.81467 25.1079 10.302C25.3685 9.80333 25.7085 9.418 26.1279 9.146C26.5585 8.874 27.0402 8.738 27.5729 8.738C28.6835 8.738 29.4372 9.31033 29.8339 10.455C30.1059 9.911 30.4742 9.49167 30.9389 9.197C31.4035 8.891 31.9305 8.738 32.5199 8.738C33.3245 8.738 33.9422 8.993 34.3729 9.503C34.8035 10.013 35.0189 10.7327 35.0189 11.662V14.025C35.0189 14.6483 35.0982 15.096 35.2569 15.368C35.4269 15.64 35.6932 15.776 36.0559 15.776C36.2145 15.776 36.3335 15.844 36.4129 15.98C36.5035 16.116 36.5489 16.2973 36.5489 16.524C36.5489 16.7053 36.4979 16.8697 36.3959 17.017C36.3052 17.1643 36.1522 17.238 35.9369 17.238C34.2935 17.238 33.4719 16.2293 33.4719 14.212V12.036C33.4719 11.4467 33.3642 10.9933 33.1489 10.676C32.9335 10.3587 32.6275 10.2 32.2309 10.2C31.6302 10.2 31.1542 10.5457 30.8029 11.237C30.4629 11.917 30.2929 12.8633 30.2929 14.076V17C30.1795 17.034 30.0549 17.0623 29.9189 17.085C29.7829 17.1077 29.6525 17.119 29.5279 17.119C29.2559 17.119 28.9952 17.0793 28.7459 17V12.274C28.7459 11.6053 28.6269 11.0953 28.3889 10.744C28.1622 10.3813 27.8222 10.2 27.3689 10.2C26.9609 10.2 26.5982 10.3643 26.2809 10.693C25.9749 11.0103 25.7312 11.4637 25.5499 12.053C25.3799 12.631 25.2949 13.3053 25.2949 14.076V17C25.1815 17.034 25.0569 17.0623 24.9209 17.085C24.7849 17.1077 24.6545 17.119 24.5299 17.119C24.2465 17.119 23.9915 17.0793 23.7649 17V11.577C23.7649 10.659 23.5042 10.2 22.9829 10.2C22.6655 10.2 22.3539 10.3983 22.0479 10.795C21.7532 11.1917 21.4132 11.8433 21.0279 12.75L20.6709 13.6C20.2175 14.6993 19.7245 15.6003 19.1919 16.303C18.6479 17.0057 17.9905 17.612 17.2199 18.122ZM35.714 17.238C35.5667 17.238 35.4477 17.17 35.357 17.034C35.2664 16.898 35.221 16.7223 35.221 16.507C35.221 16.0197 35.425 15.776 35.833 15.776C36.1617 15.776 36.496 15.725 36.836 15.623C37.176 15.5097 37.5727 15.3227 38.026 15.062C37.584 14.2913 37.363 13.3847 37.363 12.342C37.363 11.6393 37.4934 11.0217 37.754 10.489C38.0147 9.945 38.3774 9.52 38.842 9.214C39.3067 8.89667 39.8337 8.738 40.423 8.738C40.9217 8.738 41.3637 8.857 41.749 9.095C42.1344 9.32167 42.4347 9.639 42.65 10.047C42.8654 10.455 42.973 10.9253 42.973 11.458C42.973 12.1833 42.7577 12.8463 42.327 13.447C41.9077 14.0477 41.1937 14.6993 40.185 15.402C40.5477 15.6627 41.035 15.793 41.647 15.793C41.9757 15.793 42.3044 15.7477 42.633 15.657C42.9617 15.5663 43.279 15.4417 43.585 15.283C43.755 15.4077 43.8797 15.5947 43.959 15.844C44.0497 16.082 44.095 16.3143 44.095 16.541C43.721 16.7563 43.3244 16.9263 42.905 17.051C42.4857 17.1757 42.0437 17.238 41.579 17.238H41.562C41.018 17.238 40.508 17.1473 40.032 16.966C39.556 16.7847 39.1594 16.5353 38.842 16.218C37.754 16.898 36.7114 17.238 35.714 17.238ZM38.842 12.206C38.842 13.1013 39.0007 13.8153 39.318 14.348C40.0547 13.838 40.5987 13.3393 40.95 12.852C41.3127 12.3647 41.494 11.9 41.494 11.458C41.494 11.05 41.392 10.7327 41.188 10.506C40.9954 10.268 40.7234 10.149 40.372 10.149C39.93 10.149 39.5617 10.3473 39.267 10.744C38.9837 11.1407 38.842 11.628 38.842 12.206Z" fill="black"/>
</svg>
