<svg width="16" height="16" viewBox="0 0 16 16" fill="none" xmlns="http://www.w3.org/2000/svg">
<g id="Icon">
<mask id="mask0_1104_1115" style="mask-type:alpha" maskUnits="userSpaceOnUse" x="0" y="0" width="16" height="16">
<rect id="Bounding box" width="16" height="16" fill="#D1D1D6"/>
</mask>
<g mask="url(#mask0_1104_1115)">
<path id="explore_nearby" d="M8.00016 14.6667C7.07794 14.6667 6.21127 14.4917 5.40016 14.1417C4.58905 13.7917 3.8835 13.3167 3.2835 12.7167C2.6835 12.1167 2.2085 11.4111 1.8585 10.6C1.5085 9.7889 1.3335 8.92223 1.3335 8.00001C1.3335 7.07779 1.5085 6.21112 1.8585 5.40001C2.2085 4.5889 2.6835 3.88334 3.2835 3.28334C3.8835 2.68334 4.58905 2.20834 5.40016 1.85834C6.21127 1.50834 7.07794 1.33334 8.00016 1.33334C8.92238 1.33334 9.78905 1.50834 10.6002 1.85834C11.4113 2.20834 12.1168 2.68334 12.7168 3.28334C13.3168 3.88334 13.7918 4.5889 14.1418 5.40001C14.4918 6.21112 14.6668 7.07779 14.6668 8.00001C14.6668 8.92223 14.4918 9.7889 14.1418 10.6C13.7918 11.4111 13.3168 12.1167 12.7168 12.7167C12.1168 13.3167 11.4113 13.7917 10.6002 14.1417C9.78905 14.4917 8.92238 14.6667 8.00016 14.6667ZM8.00016 11.6667C8.50016 11.1667 8.94461 10.65 9.3335 10.1167C9.66683 9.66112 9.97238 9.16112 10.2502 8.61668C10.5279 8.07223 10.6668 7.53334 10.6668 7.00001C10.6668 6.26668 10.4057 5.6389 9.8835 5.11668C9.36127 4.59445 8.7335 4.33334 8.00016 4.33334C7.26683 4.33334 6.63905 4.59445 6.11683 5.11668C5.59461 5.6389 5.3335 6.26668 5.3335 7.00001C5.3335 7.53334 5.47238 8.07223 5.75016 8.61668C6.02794 9.16112 6.3335 9.66112 6.66683 10.1167C7.05572 10.65 7.50016 11.1667 8.00016 11.6667ZM8.00016 8.00001C7.72238 8.00001 7.48627 7.90279 7.29183 7.70834C7.09738 7.5139 7.00016 7.27779 7.00016 7.00001C7.00016 6.72223 7.09738 6.48612 7.29183 6.29168C7.48627 6.09723 7.72238 6.00001 8.00016 6.00001C8.27794 6.00001 8.51405 6.09723 8.7085 6.29168C8.90294 6.48612 9.00016 6.72223 9.00016 7.00001C9.00016 7.27779 8.90294 7.5139 8.7085 7.70834C8.51405 7.90279 8.27794 8.00001 8.00016 8.00001Z" fill="#3C3C43" fill-opacity="0.18"/>
</g>
</g>
</svg>
