<svg width="29" height="28" viewBox="0 0 29 28" fill="none" xmlns="http://www.w3.org/2000/svg">
<mask id="mask0_1141_7003" style="mask-type:alpha" maskUnits="userSpaceOnUse" x="0" y="0" width="29" height="28">
<rect x="0.800293" width="28" height="28" fill="#D9D9D9"/>
</mask>
<g mask="url(#mask0_1141_7003)">
<path d="M14.8001 14C13.5168 14 12.4182 13.5431 11.5043 12.6292C10.5904 11.7153 10.1335 10.6167 10.1335 9.33334C10.1335 8.05001 10.5904 6.95139 11.5043 6.03751C12.4182 5.12362 13.5168 4.66667 14.8001 4.66667C16.0835 4.66667 17.1821 5.12362 18.096 6.03751C19.0099 6.95139 19.4668 8.05001 19.4668 9.33334C19.4668 10.6167 19.0099 11.7153 18.096 12.6292C17.1821 13.5431 16.0835 14 14.8001 14ZM5.4668 21V20.0667C5.4668 19.4056 5.63694 18.7979 5.97721 18.2438C6.31749 17.6896 6.76957 17.2667 7.33346 16.975C8.53902 16.3722 9.76402 15.9201 11.0085 15.6188C12.2529 15.3174 13.5168 15.1667 14.8001 15.1667C16.0835 15.1667 17.3474 15.3174 18.5918 15.6188C19.8362 15.9201 21.0612 16.3722 22.2668 16.975C22.8307 17.2667 23.2828 17.6896 23.623 18.2438C23.9633 18.7979 24.1335 19.4056 24.1335 20.0667V21C24.1335 21.6417 23.905 22.191 23.448 22.6479C22.9911 23.1049 22.4418 23.3333 21.8001 23.3333H7.80013C7.15846 23.3333 6.60916 23.1049 6.15221 22.6479C5.69527 22.191 5.4668 21.6417 5.4668 21Z" fill="#999999"/>
</g>
</svg>
