<svg width="20" height="20" viewBox="0 0 20 20" fill="none" xmlns="http://www.w3.org/2000/svg">
<g id="Icon">
<mask id="mask0_1271_4848" style="mask-type:alpha" maskUnits="userSpaceOnUse" x="0" y="0" width="20" height="20">
<rect id="Bounding box" width="20" height="20" fill="#D9D9D9"/>
</mask>
<g mask="url(#mask0_1271_4848)">
<path id="star" d="M7.37485 14.0208L9.99985 12.4375L12.6248 14.0417L11.9373 11.0417L14.2498 9.04167L11.2082 8.77083L9.99985 5.9375L8.79152 8.75L5.74985 9.02083L8.06235 11.0417L7.37485 14.0208ZM9.99985 14.3958L6.54152 16.4792C6.38874 16.5764 6.22902 16.6181 6.06235 16.6042C5.89568 16.5903 5.74985 16.5347 5.62485 16.4375C5.49985 16.3403 5.40263 16.2187 5.33318 16.0729C5.26374 15.9271 5.24985 15.7639 5.29152 15.5833L6.20818 11.6458L3.14568 9C3.00679 8.875 2.91999 8.73264 2.88527 8.57292C2.85054 8.41319 2.86096 8.25694 2.91652 8.10417C2.97207 7.95139 3.05541 7.82639 3.16652 7.72917C3.27763 7.63194 3.43041 7.56944 3.62485 7.54167L7.66652 7.1875L9.22902 3.47917C9.29846 3.3125 9.4061 3.1875 9.55193 3.10417C9.69777 3.02083 9.84707 2.97917 9.99985 2.97917C10.1526 2.97917 10.3019 3.02083 10.4478 3.10417C10.5936 3.1875 10.7012 3.3125 10.7707 3.47917L12.3332 7.1875L16.3748 7.54167C16.5693 7.56944 16.7221 7.63194 16.8332 7.72917C16.9443 7.82639 17.0276 7.95139 17.0832 8.10417C17.1387 8.25694 17.1492 8.41319 17.1144 8.57292C17.0797 8.73264 16.9929 8.875 16.854 9L13.7915 11.6458L14.7082 15.5833C14.7498 15.7639 14.736 15.9271 14.6665 16.0729C14.5971 16.2187 14.4998 16.3403 14.3748 16.4375C14.2498 16.5347 14.104 16.5903 13.9373 16.6042C13.7707 16.6181 13.611 16.5764 13.4582 16.4792L9.99985 14.3958Z" fill="#FA2D48"/>
</g>
</g>
</svg>
