<svg width="20" height="20" viewBox="0 0 20 20" fill="none" xmlns="http://www.w3.org/2000/svg">
<g id="arrow_forward_ios">
<mask id="mask0_208_2482" style="mask-type:alpha" maskUnits="userSpaceOnUse" x="0" y="0" width="20" height="20">
<rect id="Bounding box" width="20" height="20" fill="#AEAEB2"/>
</mask>
<g mask="url(#mask0_208_2482)">
<path id="arrow_forward_ios_2" d="M12.0627 10L5.93767 3.87501C5.72934 3.66668 5.62865 3.42015 5.63559 3.13543C5.64253 2.8507 5.75017 2.60418 5.95851 2.39584C6.16684 2.18751 6.41337 2.08334 6.69809 2.08334C6.98281 2.08334 7.22934 2.18751 7.43767 2.39584L13.8335 8.81251C14.0002 8.97918 14.1252 9.16668 14.2085 9.37501C14.2918 9.58334 14.3335 9.79168 14.3335 10C14.3335 10.2083 14.2918 10.4167 14.2085 10.625C14.1252 10.8333 14.0002 11.0208 13.8335 11.1875L7.41684 17.6042C7.20851 17.8125 6.96545 17.9132 6.68767 17.9063C6.4099 17.8993 6.16684 17.7917 5.95851 17.5833C5.75017 17.375 5.64601 17.1285 5.64601 16.8438C5.64601 16.559 5.75017 16.3125 5.95851 16.1042L12.0627 10Z" fill="#AEAEB2"/>
</g>
</g>
</svg>
