<svg width="20" height="20" viewBox="0 0 20 20" fill="none" xmlns="http://www.w3.org/2000/svg">
<g id="Icon">
<mask id="mask0_1282_13706" style="mask-type:alpha" maskUnits="userSpaceOnUse" x="0" y="0" width="20" height="20">
<rect id="Bounding box" width="20" height="20" fill="#D9D9D9"/>
</mask>
<g mask="url(#mask0_1282_13706)">
<path id="add_diamond" d="M9.99984 18.3333C9.77762 18.3333 9.56581 18.2951 9.36442 18.2188C9.16303 18.1424 8.98595 18.0208 8.83317 17.8542L2.18734 11.1875C2.03456 11.0208 1.90956 10.8368 1.81234 10.6354C1.71512 10.434 1.6665 10.2222 1.6665 10C1.6665 9.77778 1.71512 9.56597 1.81234 9.36458C1.90956 9.16319 2.03456 8.98611 2.18734 8.83333L8.83317 2.16666C8.99984 2 9.18039 1.875 9.37484 1.79166C9.56928 1.70833 9.77762 1.66666 9.99984 1.66666C10.2221 1.66666 10.4373 1.70833 10.6457 1.79166C10.854 1.875 11.0346 2 11.1873 2.16666L17.8123 8.83333C17.9651 9 18.0901 9.18055 18.1873 9.375C18.2846 9.56944 18.3332 9.77778 18.3332 10C18.3332 10.2222 18.288 10.434 18.1978 10.6354C18.1075 10.8368 17.979 11.0208 17.8123 11.1875L11.1873 17.8542C11.0346 18.0069 10.854 18.125 10.6457 18.2083C10.4373 18.2917 10.2221 18.3333 9.99984 18.3333ZM9.1665 10.8333V12.5C9.1665 12.7361 9.24637 12.934 9.40609 13.0937C9.56581 13.2535 9.76373 13.3333 9.99984 13.3333C10.2359 13.3333 10.4339 13.2535 10.5936 13.0937C10.7533 12.934 10.8332 12.7361 10.8332 12.5V10.8333H12.4998C12.7359 10.8333 12.9339 10.7535 13.0936 10.5937C13.2533 10.434 13.3332 10.2361 13.3332 10C13.3332 9.76389 13.2533 9.56597 13.0936 9.40625C12.9339 9.24653 12.7359 9.16666 12.4998 9.16666H10.8332V7.5C10.8332 7.26389 10.7533 7.06597 10.5936 6.90625C10.4339 6.74653 10.2359 6.66666 9.99984 6.66666C9.76373 6.66666 9.56581 6.74653 9.40609 6.90625C9.24637 7.06597 9.1665 7.26389 9.1665 7.5V9.16666H7.49984C7.26373 9.16666 7.06581 9.24653 6.90609 9.40625C6.74637 9.56597 6.6665 9.76389 6.6665 10C6.6665 10.2361 6.74637 10.434 6.90609 10.5937C7.06581 10.7535 7.26373 10.8333 7.49984 10.8333H9.1665Z" fill="black"/>
</g>
</g>
</svg>
