<svg width="29" height="28" viewBox="0 0 29 28" fill="none" xmlns="http://www.w3.org/2000/svg">
<mask id="mask0_1141_6988" style="mask-type:alpha" maskUnits="userSpaceOnUse" x="0" y="0" width="29" height="28">
<rect x="0.600098" width="28" height="28" fill="#D9D9D9"/>
</mask>
<g mask="url(#mask0_1141_6988)">
<path d="M11.6834 18.6667C9.56399 18.6667 7.77024 17.9326 6.30218 16.4646C4.83413 14.9965 4.1001 13.2028 4.1001 11.0833C4.1001 8.96389 4.83413 7.17014 6.30218 5.70208C7.77024 4.23403 9.56399 3.5 11.6834 3.5C13.8029 3.5 15.5966 4.23403 17.0647 5.70208C18.5327 7.17014 19.2668 8.96389 19.2668 11.0833C19.2668 11.9389 19.1307 12.7458 18.8584 13.5042C18.5862 14.2625 18.2168 14.9333 17.7501 15.5167L24.2834 22.05C24.4973 22.2639 24.6043 22.5361 24.6043 22.8667C24.6043 23.1972 24.4973 23.4694 24.2834 23.6833C24.0695 23.8972 23.7973 24.0042 23.4668 24.0042C23.1362 24.0042 22.864 23.8972 22.6501 23.6833L16.1168 17.15C15.5334 17.6167 14.8626 17.9861 14.1043 18.2583C13.3459 18.5306 12.539 18.6667 11.6834 18.6667ZM11.6834 16.3333C13.1418 16.3333 14.3813 15.8229 15.4022 14.8021C16.423 13.7812 16.9334 12.5417 16.9334 11.0833C16.9334 9.625 16.423 8.38542 15.4022 7.36458C14.3813 6.34375 13.1418 5.83333 11.6834 5.83333C10.2251 5.83333 8.98551 6.34375 7.96468 7.36458C6.94385 8.38542 6.43343 9.625 6.43343 11.0833C6.43343 12.5417 6.94385 13.7812 7.96468 14.8021C8.98551 15.8229 10.2251 16.3333 11.6834 16.3333Z" fill="#999999"/>
</g>
</svg>
