<svg width="20" height="20" viewBox="0 0 20 20" fill="none" xmlns="http://www.w3.org/2000/svg">
<g id="Icon">
<mask id="mask0_1282_18139" style="mask-type:alpha" maskUnits="userSpaceOnUse" x="0" y="0" width="20" height="20">
<rect id="Bounding box" width="20" height="20" fill="#D9D9D9"/>
</mask>
<g mask="url(#mask0_1282_18139)">
<path id="ios_share" d="M5.00016 19.1667C4.54183 19.1667 4.14947 19.0035 3.82308 18.6771C3.49669 18.3507 3.3335 17.9583 3.3335 17.5V8.33334C3.3335 7.87501 3.49669 7.48264 3.82308 7.15625C4.14947 6.82987 4.54183 6.66667 5.00016 6.66667H6.66683C6.90294 6.66667 7.10086 6.74653 7.26058 6.90626C7.4203 7.06598 7.50016 7.26389 7.50016 7.5C7.50016 7.73612 7.4203 7.93403 7.26058 8.09375C7.10086 8.25348 6.90294 8.33334 6.66683 8.33334H5.00016V17.5H15.0002V8.33334H13.3335C13.0974 8.33334 12.8995 8.25348 12.7397 8.09375C12.58 7.93403 12.5002 7.73612 12.5002 7.5C12.5002 7.26389 12.58 7.06598 12.7397 6.90626C12.8995 6.74653 13.0974 6.66667 13.3335 6.66667H15.0002C15.4585 6.66667 15.8509 6.82987 16.1772 7.15625C16.5036 7.48264 16.6668 7.87501 16.6668 8.33334V17.5C16.6668 17.9583 16.5036 18.3507 16.1772 18.6771C15.8509 19.0035 15.4585 19.1667 15.0002 19.1667H5.00016ZM9.16683 4.02084L8.41683 4.77084C8.25016 4.93751 8.05572 5.01737 7.8335 5.01042C7.61127 5.00348 7.41683 4.91667 7.25016 4.75001C7.09739 4.58334 7.01752 4.38889 7.01058 4.16667C7.00363 3.94445 7.0835 3.75001 7.25016 3.58334L9.41683 1.41667C9.5835 1.25001 9.77794 1.16667 10.0002 1.16667C10.2224 1.16667 10.4168 1.25001 10.5835 1.41667L12.7502 3.58334C12.9029 3.73612 12.9793 3.92709 12.9793 4.15626C12.9793 4.38542 12.9029 4.58334 12.7502 4.75001C12.5835 4.91667 12.3856 5.00001 12.1564 5.00001C11.9272 5.00001 11.7293 4.91667 11.5627 4.75001L10.8335 4.02084V12.5C10.8335 12.7361 10.7536 12.934 10.5939 13.0938C10.4342 13.2535 10.2363 13.3333 10.0002 13.3333C9.76405 13.3333 9.56613 13.2535 9.40641 13.0938C9.24669 12.934 9.16683 12.7361 9.16683 12.5V4.02084Z" fill="white"/>
</g>
</g>
</svg>
