<svg width="29" height="28" viewBox="0 0 29 28" fill="none" xmlns="http://www.w3.org/2000/svg">
<mask id="mask0_195_9006" style="mask-type:alpha" maskUnits="userSpaceOnUse" x="0" y="0" width="29" height="28">
<rect x="0.200195" width="28" height="28" fill="#D9D9D9"/>
</mask>
<g mask="url(#mask0_195_9006)">
<path d="M3.7002 15.1667V5.83333C3.7002 5.19167 3.92867 4.64236 4.38561 4.18542C4.84256 3.72847 5.39186 3.5 6.03353 3.5H13.0335V15.1667H3.7002ZM15.3669 3.5H22.3669C23.0085 3.5 23.5578 3.72847 24.0148 4.18542C24.4717 4.64236 24.7002 5.19167 24.7002 5.83333V10.5H15.3669V3.5ZM15.3669 24.5V12.8333H24.7002V22.1667C24.7002 22.8083 24.4717 23.3576 24.0148 23.8146C23.5578 24.2715 23.0085 24.5 22.3669 24.5H15.3669ZM3.7002 17.5H13.0335V24.5H6.03353C5.39186 24.5 4.84256 24.2715 4.38561 23.8146C3.92867 23.3576 3.7002 22.8083 3.7002 22.1667V17.5Z" fill="#999999"/>
</g>
</svg>
