<svg width="20" height="20" viewBox="0 0 20 20" fill="none" xmlns="http://www.w3.org/2000/svg">
<g id="Icon">
<mask id="mask0_1282_14012" style="mask-type:alpha" maskUnits="userSpaceOnUse" x="0" y="0" width="20" height="20">
<rect id="Bounding box" width="20" height="20" fill="#D9D9D9"/>
</mask>
<g mask="url(#mask0_1282_14012)">
<path id="note_stack_add" d="M5.83355 16.6667V7.47917C5.83355 7.02083 6.00021 6.63195 6.33355 6.3125C6.66688 5.99306 7.06271 5.83333 7.52105 5.83333H16.6669C17.1252 5.83333 17.5176 5.99653 17.844 6.32292C18.1704 6.64931 18.3335 7.04167 18.3335 7.5V13.4792C18.3335 13.7014 18.2919 13.9132 18.2085 14.1146C18.1252 14.316 18.0072 14.4931 17.8544 14.6458L14.646 17.8542C14.4933 18.0069 14.3162 18.125 14.1148 18.2083C13.9134 18.2917 13.7016 18.3333 13.4794 18.3333H7.50021C7.04188 18.3333 6.64952 18.1701 6.32313 17.8438C5.99674 17.5174 5.83355 17.125 5.83355 16.6667ZM1.68771 5.20833C1.60438 4.75 1.69466 4.33681 1.95855 3.96875C2.22244 3.6007 2.58355 3.375 3.04188 3.29167L12.0835 1.6875C12.5419 1.60417 12.9551 1.69445 13.3231 1.95833C13.6912 2.22222 13.9169 2.58333 14.0002 3.04167L14.2085 4.16667H7.50021C6.58355 4.16667 5.79883 4.49306 5.14605 5.14583C4.49327 5.79861 4.16688 6.58333 4.16688 7.5V15.4583C3.94466 15.3333 3.75369 15.1667 3.59396 14.9583C3.43424 14.75 3.33355 14.5139 3.29188 14.25L1.68771 5.20833ZM11.2502 12.9167V14.5833C11.2502 14.8194 11.3301 15.0174 11.4898 15.1771C11.6495 15.3368 11.8474 15.4167 12.0835 15.4167C12.3197 15.4167 12.5176 15.3368 12.6773 15.1771C12.837 15.0174 12.9169 14.8194 12.9169 14.5833V12.9167H14.5835C14.8197 12.9167 15.0176 12.8368 15.1773 12.6771C15.337 12.5174 15.4169 12.3194 15.4169 12.0833C15.4169 11.8472 15.337 11.6493 15.1773 11.4896C15.0176 11.3299 14.8197 11.25 14.5835 11.25H12.9169V9.58333C12.9169 9.34722 12.837 9.14931 12.6773 8.98958C12.5176 8.82986 12.3197 8.75 12.0835 8.75C11.8474 8.75 11.6495 8.82986 11.4898 8.98958C11.3301 9.14931 11.2502 9.34722 11.2502 9.58333V11.25H9.58355C9.34744 11.25 9.14952 11.3299 8.9898 11.4896C8.83008 11.6493 8.75022 11.8472 8.75022 12.0833C8.75022 12.3194 8.83008 12.5174 8.9898 12.6771C9.14952 12.8368 9.34744 12.9167 9.58355 12.9167H11.2502Z" fill="white"/>
</g>
</g>
</svg>
