<svg width="22" height="22" viewBox="0 0 22 22" fill="none" xmlns="http://www.w3.org/2000/svg">
<mask id="mask0_1566_6892" style="mask-type:alpha" maskUnits="userSpaceOnUse" x="0" y="0" width="22" height="22">
<rect width="22" height="22" fill="#D9D9D9"/>
</mask>
<g mask="url(#mask0_1566_6892)">
<path d="M10.083 10.8167V13.75C10.083 14.0097 10.1709 14.2274 10.3465 14.4031C10.5222 14.5788 10.74 14.6667 10.9997 14.6667C11.2594 14.6667 11.4771 14.5788 11.6528 14.4031C11.8285 14.2274 11.9163 14.0097 11.9163 13.75V10.8167L12.7413 11.6417C12.9094 11.8097 13.1233 11.8937 13.383 11.8937C13.6427 11.8937 13.8566 11.8097 14.0247 11.6417C14.1927 11.4736 14.2768 11.2597 14.2768 11C14.2768 10.7403 14.1927 10.5264 14.0247 10.3583L11.6413 7.97499C11.458 7.79166 11.2441 7.69999 10.9997 7.69999C10.7552 7.69999 10.5413 7.79166 10.358 7.97499L7.97467 10.3583C7.80662 10.5264 7.72259 10.7403 7.72259 11C7.72259 11.2597 7.80662 11.4736 7.97467 11.6417C8.14273 11.8097 8.35662 11.8937 8.61634 11.8937C8.87606 11.8937 9.08995 11.8097 9.25801 11.6417L10.083 10.8167ZM10.9997 20.1667C9.73162 20.1667 8.53995 19.926 7.42467 19.4448C6.3094 18.9635 5.33926 18.3104 4.51426 17.4854C3.68926 16.6604 3.03613 15.6903 2.55488 14.575C2.07363 13.4597 1.83301 12.2681 1.83301 11C1.83301 9.73194 2.07363 8.54027 2.55488 7.42499C3.03613 6.30972 3.68926 5.33958 4.51426 4.51458C5.33926 3.68958 6.3094 3.03645 7.42467 2.5552C8.53995 2.07395 9.73162 1.83333 10.9997 1.83333C12.2677 1.83333 13.4594 2.07395 14.5747 2.5552C15.69 3.03645 16.6601 3.68958 17.4851 4.51458C18.3101 5.33958 18.9632 6.30972 19.4445 7.42499C19.9257 8.54027 20.1663 9.73194 20.1663 11C20.1663 12.2681 19.9257 13.4597 19.4445 14.575C18.9632 15.6903 18.3101 16.6604 17.4851 17.4854C16.6601 18.3104 15.69 18.9635 14.5747 19.4448C13.4594 19.926 12.2677 20.1667 10.9997 20.1667Z" fill="#FA2D48"/>
</g>
</svg>
