<svg width="20" height="20" viewBox="0 0 20 20" fill="none" xmlns="http://www.w3.org/2000/svg">
<g id="Icon">
<mask id="mask0_1282_14876" style="mask-type:alpha" maskUnits="userSpaceOnUse" x="0" y="0" width="20" height="20">
<rect id="Bounding box" width="20" height="20" fill="#D9D9D9"/>
</mask>
<g mask="url(#mask0_1282_14876)">
<path id="more_horiz" d="M5.00016 11.6667C4.54183 11.6667 4.14947 11.5035 3.82308 11.1771C3.49669 10.8507 3.3335 10.4583 3.3335 10C3.3335 9.54167 3.49669 9.14931 3.82308 8.82292C4.14947 8.49653 4.54183 8.33334 5.00016 8.33334C5.4585 8.33334 5.85086 8.49653 6.17725 8.82292C6.50363 9.14931 6.66683 9.54167 6.66683 10C6.66683 10.4583 6.50363 10.8507 6.17725 11.1771C5.85086 11.5035 5.4585 11.6667 5.00016 11.6667ZM10.0002 11.6667C9.54183 11.6667 9.14947 11.5035 8.82308 11.1771C8.49669 10.8507 8.3335 10.4583 8.3335 10C8.3335 9.54167 8.49669 9.14931 8.82308 8.82292C9.14947 8.49653 9.54183 8.33334 10.0002 8.33334C10.4585 8.33334 10.8509 8.49653 11.1772 8.82292C11.5036 9.14931 11.6668 9.54167 11.6668 10C11.6668 10.4583 11.5036 10.8507 11.1772 11.1771C10.8509 11.5035 10.4585 11.6667 10.0002 11.6667ZM15.0002 11.6667C14.5418 11.6667 14.1495 11.5035 13.8231 11.1771C13.4967 10.8507 13.3335 10.4583 13.3335 10C13.3335 9.54167 13.4967 9.14931 13.8231 8.82292C14.1495 8.49653 14.5418 8.33334 15.0002 8.33334C15.4585 8.33334 15.8509 8.49653 16.1772 8.82292C16.5036 9.14931 16.6668 9.54167 16.6668 10C16.6668 10.4583 16.5036 10.8507 16.1772 11.1771C15.8509 11.5035 15.4585 11.6667 15.0002 11.6667Z" fill="white"/>
</g>
</g>
</svg>
