<svg width="29" height="28" viewBox="0 0 29 28" fill="none" xmlns="http://www.w3.org/2000/svg">
<mask id="mask0_1141_6998" style="mask-type:alpha" maskUnits="userSpaceOnUse" x="0" y="0" width="29" height="28">
<rect x="0.400391" width="28" height="28" fill="#D9D9D9"/>
</mask>
<g mask="url(#mask0_1141_6998)">
<path d="M14.4006 16.2167L16.1506 17.5583C16.3644 17.7333 16.5978 17.7382 16.8506 17.5729C17.1033 17.4076 17.1811 17.1889 17.0839 16.9167L16.3839 14.7L18.3381 13.1833C18.5519 13.0083 18.6103 12.7896 18.5131 12.5271C18.4158 12.2646 18.2311 12.1333 17.9589 12.1333H15.6839L14.9547 9.88751C14.8575 9.61528 14.6728 9.47917 14.4006 9.47917C14.1283 9.47917 13.9436 9.61528 13.8464 9.88751L13.1172 12.1333H10.8131C10.5408 12.1333 10.361 12.2646 10.2735 12.5271C10.186 12.7896 10.2492 13.0083 10.4631 13.1833L12.3589 14.7L11.6589 16.9458C11.5617 17.2181 11.6297 17.4368 11.8631 17.6021C12.0964 17.7674 12.3297 17.7625 12.5631 17.5875L14.4006 16.2167ZM5.06722 23.3333C4.42555 23.3333 3.87625 23.1049 3.4193 22.6479C2.96236 22.191 2.73389 21.6417 2.73389 21V17.0625C2.73389 16.8486 2.80194 16.6639 2.93805 16.5083C3.07416 16.3528 3.24916 16.2556 3.46305 16.2167C3.92972 16.0611 4.31375 15.7792 4.61514 15.3708C4.91653 14.9625 5.06722 14.5056 5.06722 14C5.06722 13.4945 4.91653 13.0375 4.61514 12.6292C4.31375 12.2208 3.92972 11.9389 3.46305 11.7833C3.24916 11.7445 3.07416 11.6472 2.93805 11.4917C2.80194 11.3361 2.73389 11.1514 2.73389 10.9375V7.00001C2.73389 6.35834 2.96236 5.80903 3.4193 5.35209C3.87625 4.89514 4.42555 4.66667 5.06722 4.66667H23.7339C24.3756 4.66667 24.9249 4.89514 25.3818 5.35209C25.8387 5.80903 26.0672 6.35834 26.0672 7.00001V10.9375C26.0672 11.1514 25.9992 11.3361 25.8631 11.4917C25.7269 11.6472 25.5519 11.7445 25.3381 11.7833C24.8714 11.9389 24.4874 12.2208 24.186 12.6292C23.8846 13.0375 23.7339 13.4945 23.7339 14C23.7339 14.5056 23.8846 14.9625 24.186 15.3708C24.4874 15.7792 24.8714 16.0611 25.3381 16.2167C25.5519 16.2556 25.7269 16.3528 25.8631 16.5083C25.9992 16.6639 26.0672 16.8486 26.0672 17.0625V21C26.0672 21.6417 25.8387 22.191 25.3818 22.6479C24.9249 23.1049 24.3756 23.3333 23.7339 23.3333H5.06722Z" fill="#999999"/>
</g>
</svg>
