<svg width="29" height="28" viewBox="0 0 29 28" fill="none" xmlns="http://www.w3.org/2000/svg">
<mask id="mask0_195_8988" style="mask-type:alpha" maskUnits="userSpaceOnUse" x="0" y="0" width="29" height="28">
<rect x="0.400391" width="28" height="28" fill="#D9D9D9"/>
</mask>
<g mask="url(#mask0_195_8988)">
<path d="M14.4001 16.2167L16.1501 17.5583C16.364 17.7333 16.5973 17.7382 16.8501 17.5729C17.1028 17.4076 17.1806 17.1889 17.0834 16.9167L16.3834 14.7L18.3376 13.1833C18.5515 13.0083 18.6098 12.7896 18.5126 12.5271C18.4153 12.2646 18.2306 12.1333 17.9584 12.1333H15.6834L14.9542 9.88749C14.857 9.61527 14.6723 9.47916 14.4001 9.47916C14.1278 9.47916 13.9431 9.61527 13.8459 9.88749L13.1167 12.1333H10.8126C10.5403 12.1333 10.3605 12.2646 10.273 12.5271C10.1855 12.7896 10.2487 13.0083 10.4626 13.1833L12.3584 14.7L11.6584 16.9458C11.5612 17.218 11.6292 17.4368 11.8626 17.6021C12.0959 17.7674 12.3292 17.7625 12.5626 17.5875L14.4001 16.2167ZM5.06673 23.3333C4.42507 23.3333 3.87576 23.1049 3.41882 22.6479C2.96187 22.191 2.7334 21.6417 2.7334 21V17.0625C2.7334 16.8486 2.80145 16.6639 2.93757 16.5083C3.07368 16.3528 3.24868 16.2555 3.46257 16.2167C3.92923 16.0611 4.31326 15.7792 4.61465 15.3708C4.91604 14.9625 5.06673 14.5055 5.06673 14C5.06673 13.4944 4.91604 13.0375 4.61465 12.6292C4.31326 12.2208 3.92923 11.9389 3.46257 11.7833C3.24868 11.7444 3.07368 11.6472 2.93757 11.4917C2.80145 11.3361 2.7334 11.1514 2.7334 10.9375V6.99999C2.7334 6.35832 2.96187 5.80902 3.41882 5.35207C3.87576 4.89513 4.42507 4.66666 5.06673 4.66666H23.7334C24.3751 4.66666 24.9244 4.89513 25.3813 5.35207C25.8383 5.80902 26.0667 6.35832 26.0667 6.99999V10.9375C26.0667 11.1514 25.9987 11.3361 25.8626 11.4917C25.7265 11.6472 25.5515 11.7444 25.3376 11.7833C24.8709 11.9389 24.4869 12.2208 24.1855 12.6292C23.8841 13.0375 23.7334 13.4944 23.7334 14C23.7334 14.5055 23.8841 14.9625 24.1855 15.3708C24.4869 15.7792 24.8709 16.0611 25.3376 16.2167C25.5515 16.2555 25.7265 16.3528 25.8626 16.5083C25.9987 16.6639 26.0667 16.8486 26.0667 17.0625V21C26.0667 21.6417 25.8383 22.191 25.3813 22.6479C24.9244 23.1049 24.3751 23.3333 23.7334 23.3333H5.06673Z" fill="#FA2D48"/>
</g>
</svg>
