<svg width="16" height="16" viewBox="0 0 16 16" fill="none" xmlns="http://www.w3.org/2000/svg">
<g id="Icon">
<mask id="mask0_330_10742" style="mask-type:alpha" maskUnits="userSpaceOnUse" x="0" y="0" width="16" height="16">
<rect id="Bounding box" width="16" height="16" fill="#D1D1D6"/>
</mask>
<g mask="url(#mask0_330_10742)">
<path id="explore_nearby" d="M7.99967 14.6667C7.07745 14.6667 6.21079 14.4917 5.39967 14.1417C4.58856 13.7917 3.88301 13.3167 3.28301 12.7167C2.68301 12.1167 2.20801 11.4112 1.85801 10.6C1.50801 9.78893 1.33301 8.92226 1.33301 8.00004C1.33301 7.07782 1.50801 6.21115 1.85801 5.40004C2.20801 4.58893 2.68301 3.88337 3.28301 3.28337C3.88301 2.68337 4.58856 2.20837 5.39967 1.85837C6.21079 1.50837 7.07745 1.33337 7.99967 1.33337C8.9219 1.33337 9.78856 1.50837 10.5997 1.85837C11.4108 2.20837 12.1163 2.68337 12.7163 3.28337C13.3163 3.88337 13.7913 4.58893 14.1413 5.40004C14.4913 6.21115 14.6663 7.07782 14.6663 8.00004C14.6663 8.92226 14.4913 9.78893 14.1413 10.6C13.7913 11.4112 13.3163 12.1167 12.7163 12.7167C12.1163 13.3167 11.4108 13.7917 10.5997 14.1417C9.78856 14.4917 8.9219 14.6667 7.99967 14.6667ZM7.99967 11.6667C8.49967 11.1667 8.94412 10.65 9.33301 10.1167C9.66634 9.66115 9.9719 9.16115 10.2497 8.61671C10.5275 8.07226 10.6663 7.53337 10.6663 7.00004C10.6663 6.26671 10.4052 5.63893 9.88301 5.11671C9.36078 4.59449 8.73301 4.33337 7.99967 4.33337C7.26634 4.33337 6.63856 4.59449 6.11634 5.11671C5.59412 5.63893 5.33301 6.26671 5.33301 7.00004C5.33301 7.53337 5.4719 8.07226 5.74967 8.61671C6.02745 9.16115 6.33301 9.66115 6.66634 10.1167C7.05523 10.65 7.49967 11.1667 7.99967 11.6667ZM7.99967 8.00004C7.7219 8.00004 7.48579 7.90282 7.29134 7.70837C7.0969 7.51393 6.99967 7.27782 6.99967 7.00004C6.99967 6.72226 7.0969 6.48615 7.29134 6.29171C7.48579 6.09726 7.7219 6.00004 7.99967 6.00004C8.27745 6.00004 8.51356 6.09726 8.70801 6.29171C8.90245 6.48615 8.99967 6.72226 8.99967 7.00004C8.99967 7.27782 8.90245 7.51393 8.70801 7.70837C8.51356 7.90282 8.27745 8.00004 7.99967 8.00004Z" fill="#3C3C43" fill-opacity="0.18"/>
</g>
</g>
</svg>
