<svg width="28" height="28" viewBox="0 0 28 28" fill="none" xmlns="http://www.w3.org/2000/svg">
<mask id="mask0_195_8958" style="mask-type:alpha" maskUnits="userSpaceOnUse" x="0" y="0" width="28" height="28">
<rect width="28" height="28" fill="#D9D9D9"/>
</mask>
<g mask="url(#mask0_195_8958)">
<path d="M19.4837 16.9167L23.9171 13.125L24.6754 13.1833C25.0059 13.2222 25.2636 13.3583 25.4483 13.5917C25.633 13.825 25.7254 14.0778 25.7254 14.35C25.7254 14.5056 25.6962 14.6611 25.6379 14.8167C25.5796 14.9722 25.4726 15.1083 25.3171 15.225L22.2837 17.8792L23.1879 21.8167C23.2073 21.8556 23.2171 21.8993 23.2171 21.9479V22.0792C23.2171 22.4097 23.1004 22.6868 22.8671 22.9104C22.6337 23.134 22.3615 23.2458 22.0504 23.2458C21.9532 23.2458 21.8511 23.2313 21.7441 23.2021C21.6372 23.1729 21.5351 23.1292 21.4379 23.0708L20.8254 22.6917L19.4837 16.9167ZM16.7421 8.4L15.5171 5.54167L15.7796 4.9C15.8768 4.66667 16.0275 4.48681 16.2316 4.36042C16.4358 4.23403 16.6448 4.17084 16.8587 4.17084C17.0726 4.17084 17.2816 4.22917 17.4858 4.34584C17.69 4.4625 17.8407 4.6375 17.9379 4.87084L19.5421 8.6625L16.7421 8.4ZM5.65872 21.8167L6.94206 16.3042L2.65456 12.6C2.499 12.4833 2.39692 12.3472 2.34831 12.1917C2.2997 12.0361 2.27539 11.8806 2.27539 11.725C2.27539 11.4528 2.36775 11.2 2.55247 10.9667C2.7372 10.7333 2.99484 10.5972 3.32539 10.5583L8.98372 10.0625L11.1712 4.87084C11.2684 4.6375 11.4191 4.4625 11.6233 4.34584C11.8275 4.22917 12.0365 4.17084 12.2504 4.17084C12.4643 4.17084 12.6733 4.22917 12.8775 4.34584C13.0816 4.4625 13.2323 4.6375 13.3296 4.87084L15.5171 10.0625L21.1754 10.5583C21.5059 10.5972 21.7636 10.7333 21.9483 10.9667C22.133 11.2 22.2254 11.4528 22.2254 11.725C22.2254 11.8806 22.2011 12.0361 22.1525 12.1917C22.1039 12.3472 22.0018 12.4833 21.8462 12.6L17.5587 16.3042L18.8421 21.8167C18.8615 21.875 18.8712 21.9625 18.8712 22.0792C18.8712 22.4097 18.7546 22.6868 18.5212 22.9104C18.2879 23.134 18.0157 23.2458 17.7046 23.2458C17.6462 23.2458 17.4421 23.1875 17.0921 23.0708L12.2504 20.1542L7.40872 23.0708C7.3115 23.1292 7.20942 23.1729 7.10247 23.2021C6.99553 23.2313 6.89345 23.2458 6.79622 23.2458C6.44622 23.2458 6.14484 23.1049 5.89206 22.8229C5.63928 22.541 5.5615 22.2056 5.65872 21.8167Z" fill="#FA2D48"/>
</g>
</svg>
