<svg width="28" height="28" viewBox="0 0 28 28" fill="none" xmlns="http://www.w3.org/2000/svg">
<mask id="mask0_1141_6993" style="mask-type:alpha" maskUnits="userSpaceOnUse" x="0" y="0" width="28" height="28">
<rect width="28" height="28" fill="#D9D9D9"/>
</mask>
<g mask="url(#mask0_1141_6993)">
<path d="M19.4832 16.9167L23.9166 13.125L24.6749 13.1833C25.0055 13.2222 25.2631 13.3583 25.4478 13.5917C25.6325 13.825 25.7249 14.0778 25.7249 14.35C25.7249 14.5056 25.6957 14.6611 25.6374 14.8167C25.5791 14.9722 25.4721 15.1083 25.3166 15.225L22.2832 17.8792L23.1874 21.8167C23.2068 21.8556 23.2166 21.8993 23.2166 21.9479V22.0792C23.2166 22.4097 23.0999 22.6868 22.8666 22.9104C22.6332 23.134 22.361 23.2458 22.0499 23.2458C21.9527 23.2458 21.8506 23.2313 21.7437 23.2021C21.6367 23.1729 21.5346 23.1292 21.4374 23.0708L20.8249 22.6917L19.4832 16.9167ZM16.7416 8.4L15.5166 5.54167L15.7791 4.9C15.8763 4.66667 16.027 4.48681 16.2312 4.36042C16.4353 4.23403 16.6443 4.17084 16.8582 4.17084C17.0721 4.17084 17.2812 4.22917 17.4853 4.34584C17.6895 4.4625 17.8402 4.6375 17.9374 4.87084L19.5416 8.6625L16.7416 8.4ZM5.65824 21.8167L6.94157 16.3042L2.65407 12.6C2.49851 12.4833 2.39643 12.3472 2.34782 12.1917C2.29921 12.0361 2.2749 11.8806 2.2749 11.725C2.2749 11.4528 2.36726 11.2 2.55199 10.9667C2.73671 10.7333 2.99435 10.5972 3.3249 10.5583L8.98324 10.0625L11.1707 4.87084C11.268 4.6375 11.4187 4.4625 11.6228 4.34584C11.827 4.22917 12.036 4.17084 12.2499 4.17084C12.4638 4.17084 12.6728 4.22917 12.877 4.34584C13.0812 4.4625 13.2318 4.6375 13.3291 4.87084L15.5166 10.0625L21.1749 10.5583C21.5055 10.5972 21.7631 10.7333 21.9478 10.9667C22.1325 11.2 22.2249 11.4528 22.2249 11.725C22.2249 11.8806 22.2006 12.0361 22.152 12.1917C22.1034 12.3472 22.0013 12.4833 21.8457 12.6L17.5582 16.3042L18.8416 21.8167C18.861 21.875 18.8707 21.9625 18.8707 22.0792C18.8707 22.4097 18.7541 22.6868 18.5207 22.9104C18.2874 23.134 18.0152 23.2458 17.7041 23.2458C17.6457 23.2458 17.4416 23.1875 17.0916 23.0708L12.2499 20.1542L7.40824 23.0708C7.31101 23.1292 7.20893 23.1729 7.10199 23.2021C6.99504 23.2313 6.89296 23.2458 6.79574 23.2458C6.44574 23.2458 6.14435 23.1049 5.89157 22.8229C5.63879 22.541 5.56101 22.2056 5.65824 21.8167Z" fill="#999999"/>
</g>
</svg>
