<svg width="29" height="28" viewBox="0 0 29 28" fill="none" xmlns="http://www.w3.org/2000/svg">
<mask id="mask0_195_8928" style="mask-type:alpha" maskUnits="userSpaceOnUse" x="0" y="0" width="29" height="28">
<rect x="0.600586" width="28" height="28" fill="#D9D9D9"/>
</mask>
<g mask="url(#mask0_195_8928)">
<path d="M11.6839 18.6667C9.56447 18.6667 7.77072 17.9326 6.30267 16.4646C4.83461 14.9965 4.10059 13.2028 4.10059 11.0833C4.10059 8.96389 4.83461 7.17014 6.30267 5.70208C7.77072 4.23403 9.56447 3.5 11.6839 3.5C13.8034 3.5 15.5971 4.23403 17.0652 5.70208C18.5332 7.17014 19.2673 8.96389 19.2673 11.0833C19.2673 11.9389 19.1311 12.7458 18.8589 13.5042C18.5867 14.2625 18.2173 14.9333 17.7506 15.5167L24.2839 22.05C24.4978 22.2639 24.6048 22.5361 24.6048 22.8667C24.6048 23.1972 24.4978 23.4694 24.2839 23.6833C24.07 23.8972 23.7978 24.0042 23.4673 24.0042C23.1367 24.0042 22.8645 23.8972 22.6506 23.6833L16.1173 17.15C15.5339 17.6167 14.8631 17.9861 14.1048 18.2583C13.3464 18.5306 12.5395 18.6667 11.6839 18.6667ZM11.6839 16.3333C13.1423 16.3333 14.3818 15.8229 15.4027 14.8021C16.4235 13.7812 16.9339 12.5417 16.9339 11.0833C16.9339 9.625 16.4235 8.38542 15.4027 7.36458C14.3818 6.34375 13.1423 5.83333 11.6839 5.83333C10.2256 5.83333 8.986 6.34375 7.96517 7.36458C6.94434 8.38542 6.43392 9.625 6.43392 11.0833C6.43392 12.5417 6.94434 13.7812 7.96517 14.8021C8.986 15.8229 10.2256 16.3333 11.6839 16.3333Z" fill="#FA2D48"/>
</g>
</svg>
