<svg width="16" height="16" viewBox="0 0 16 16" fill="none" xmlns="http://www.w3.org/2000/svg">
<g id="schedule">
<mask id="mask0_330_10737" style="mask-type:alpha" maskUnits="userSpaceOnUse" x="0" y="0" width="16" height="16">
<rect id="Bounding box" width="16" height="16" fill="#D1D1D6"/>
</mask>
<g mask="url(#mask0_330_10737)">
<path id="schedule_2" d="M8.66634 7.73337V5.33337C8.66634 5.14448 8.60245 4.98615 8.47467 4.85837C8.3469 4.7306 8.18856 4.66671 7.99967 4.66671C7.81079 4.66671 7.65245 4.7306 7.52467 4.85837C7.3969 4.98615 7.33301 5.14448 7.33301 5.33337V7.98337C7.33301 8.07226 7.34967 8.15837 7.38301 8.24171C7.41634 8.32504 7.46634 8.40004 7.53301 8.46671L9.73301 10.6667C9.85523 10.7889 10.0108 10.85 10.1997 10.85C10.3886 10.85 10.5441 10.7889 10.6663 10.6667C10.7886 10.5445 10.8497 10.3889 10.8497 10.2C10.8497 10.0112 10.7886 9.8556 10.6663 9.73337L8.66634 7.73337ZM7.99967 14.6667C7.07745 14.6667 6.21079 14.4917 5.39967 14.1417C4.58856 13.7917 3.88301 13.3167 3.28301 12.7167C2.68301 12.1167 2.20801 11.4112 1.85801 10.6C1.50801 9.78893 1.33301 8.92226 1.33301 8.00004C1.33301 7.07782 1.50801 6.21115 1.85801 5.40004C2.20801 4.58893 2.68301 3.88337 3.28301 3.28337C3.88301 2.68337 4.58856 2.20837 5.39967 1.85837C6.21079 1.50837 7.07745 1.33337 7.99967 1.33337C8.9219 1.33337 9.78856 1.50837 10.5997 1.85837C11.4108 2.20837 12.1163 2.68337 12.7163 3.28337C13.3163 3.88337 13.7913 4.58893 14.1413 5.40004C14.4913 6.21115 14.6663 7.07782 14.6663 8.00004C14.6663 8.92226 14.4913 9.78893 14.1413 10.6C13.7913 11.4112 13.3163 12.1167 12.7163 12.7167C12.1163 13.3167 11.4108 13.7917 10.5997 14.1417C9.78856 14.4917 8.9219 14.6667 7.99967 14.6667Z" fill="#3C3C43" fill-opacity="0.18"/>
</g>
</g>
</svg>
