<svg width="22" height="22" viewBox="0 0 22 22" fill="none" xmlns="http://www.w3.org/2000/svg">
<mask id="mask0_1566_2531" style="mask-type:alpha" maskUnits="userSpaceOnUse" x="0" y="0" width="22" height="22">
<rect width="22" height="22" fill="#D9D9D9"/>
</mask>
<g mask="url(#mask0_1566_2531)">
<path d="M4.35449 20.1667C3.74338 20.1667 3.25449 19.9184 2.88783 19.4219C2.52116 18.9254 2.39894 18.3639 2.52116 17.7375C2.68921 16.9583 2.8038 16.1792 2.86491 15.4C2.92602 14.6208 2.96421 13.8417 2.97949 13.0625C2.3531 12.8181 1.85276 12.4285 1.47845 11.8938C1.10414 11.359 0.916992 10.7556 0.916992 10.0833V9.44167C0.916992 9.09028 1.02012 8.76945 1.22637 8.47917C1.43262 8.1889 1.7038 7.97501 2.03991 7.83751C3.4913 7.25695 4.85866 6.5389 6.14199 5.68334C7.42533 4.82778 8.66283 3.89584 9.85449 2.88751C10.0225 2.75001 10.2021 2.64688 10.393 2.57813C10.584 2.50938 10.7864 2.47501 11.0003 2.47501C11.2142 2.47501 11.4166 2.50938 11.6076 2.57813C11.7986 2.64688 11.9781 2.75001 12.1462 2.88751C13.3378 3.89584 14.5753 4.82778 15.8587 5.68334C17.142 6.5389 18.5094 7.25695 19.9607 7.83751C20.2969 7.97501 20.568 8.1889 20.7743 8.47917C20.9805 8.76945 21.0837 9.09028 21.0837 9.44167V10.0833C21.0837 10.7556 20.8965 11.359 20.5222 11.8938C20.1479 12.4285 19.6475 12.8181 19.0212 13.0625C19.0364 13.8417 19.0746 14.6208 19.1357 15.4C19.1969 16.1792 19.3114 16.9583 19.4795 17.7375C19.6017 18.3639 19.4795 18.9254 19.1128 19.4219C18.7462 19.9184 18.2573 20.1667 17.6462 20.1667H4.35449ZM5.40866 8.25001H16.592C15.5837 7.68473 14.6173 7.07362 13.693 6.41667C12.7687 5.75973 11.8712 5.05695 11.0003 4.30834C10.1295 5.05695 9.23192 5.75973 8.30762 6.41667C7.38331 7.07362 6.41699 7.68473 5.40866 8.25001ZM13.292 11.4583C13.6739 11.4583 13.9986 11.3247 14.266 11.0573C14.5333 10.7899 14.667 10.4653 14.667 10.0833H11.917C11.917 10.4653 12.0507 10.7899 12.318 11.0573C12.5854 11.3247 12.91 11.4583 13.292 11.4583ZM8.70866 11.4583C9.0906 11.4583 9.41526 11.3247 9.68262 11.0573C9.94998 10.7899 10.0837 10.4653 10.0837 10.0833H7.33366C7.33366 10.4653 7.46734 10.7899 7.7347 11.0573C8.00206 11.3247 8.32672 11.4583 8.70866 11.4583ZM4.12533 11.4583C4.50727 11.4583 4.83192 11.3247 5.09928 11.0573C5.36665 10.7899 5.50033 10.4653 5.50033 10.0833H2.75033C2.75033 10.4653 2.88401 10.7899 3.15137 11.0573C3.41873 11.3247 3.74338 11.4583 4.12533 11.4583ZM4.26283 18.3333H6.71491C6.85241 17.4167 6.95935 16.5076 7.03574 15.6063C7.11213 14.7049 7.17324 13.7958 7.21908 12.8792C7.0663 12.8028 6.92498 12.7226 6.79512 12.6385C6.66526 12.5545 6.53921 12.4514 6.41699 12.3292C6.2031 12.5431 5.95866 12.7264 5.68366 12.8792C5.40866 13.032 5.11838 13.1465 4.81283 13.2229C4.78227 14.0938 4.7288 14.9531 4.65241 15.801C4.57602 16.649 4.44616 17.4931 4.26283 18.3333ZM8.57116 18.3333H13.4295C13.3073 17.4931 13.2118 16.6528 13.143 15.8125C13.0743 14.9722 13.017 14.1243 12.9712 13.2688C12.5892 13.2382 12.2302 13.1427 11.8941 12.9823C11.558 12.8219 11.26 12.6118 11.0003 12.3521C10.7406 12.6118 10.4427 12.8219 10.1066 12.9823C9.77047 13.1427 9.41144 13.2382 9.02949 13.2688C8.98366 14.1243 8.92637 14.9722 8.85762 15.8125C8.78887 16.6528 8.69338 17.4931 8.57116 18.3333ZM15.2857 18.3333H17.7378C17.5545 17.4931 17.4246 16.649 17.3482 15.801C17.2719 14.9531 17.2184 14.0938 17.1878 13.2229C16.8823 13.1465 16.592 13.0358 16.317 12.8906C16.042 12.7455 15.7975 12.5583 15.5837 12.3292C15.4614 12.4514 15.3354 12.5545 15.2055 12.6385C15.0757 12.7226 14.9344 12.8028 14.7816 12.8792C14.8274 13.7958 14.8923 14.7049 14.9764 15.6063C15.0604 16.5076 15.1635 17.4167 15.2857 18.3333ZM17.8753 11.4583C18.2573 11.4583 18.5819 11.3247 18.8493 11.0573C19.1166 10.7899 19.2503 10.4653 19.2503 10.0833H16.5003C16.5003 10.4653 16.634 10.7899 16.9014 11.0573C17.1687 11.3247 17.4934 11.4583 17.8753 11.4583Z" fill="#FA2D48"/>
</g>
</svg>
